<svg xmlns="http://www.w3.org/2000/svg" width="24" height="24" data-name="Draw" viewBox="0 0 24 24">
  <path d="M12.2 17.24a10.86 10.86 0 0 1-8.94-4.56 1 1 0 0 1 0-1.39A10.28 10.28 0 0 1 9.79 7a10.44 10.44 0 0 1 10 3.11 10.53 10.53 0 0 1 1 1.21 1 1 0 0 1 0 1.34A10.5 10.5 0 0 1 14.05 17c-.67.14-1.36.18-1.85.24ZM12 7.3c-.43 0-1 0-1.48.13a10.08 10.08 0 0 0-5.24 2.41 9.79 9.79 0 0 0-1.59 1.75c-.24.35-.24.48 0 .84l.1.13a10 10 0 0 0 9.66 4 9.83 9.83 0 0 0 6.81-4.11c.3-.4.3-.53 0-.93A10.26 10.26 0 0 0 12 7.3ZM19.35 4.94a1.16 1.16 0 0 1-.12.2l-2 2a.29.29 0 0 1-.16.11.35.35 0 0 1-.25 0 .31.31 0 0 1-.06-.25.43.43 0 0 1 .14-.2l1.93-1.93a.66.66 0 0 1 .17-.21.25.25 0 0 1 .35.28ZM5 19.35c-.24 0-.37-.14-.31-.31a.46.46 0 0 1 .14-.2l1.93-1.93.09-.09a.25.25 0 0 1 .37.35l-.14.14c-.61.62-1.23 1.24-1.85 1.85a2.49 2.49 0 0 1-.23.19ZM19.06 19.36a1.44 1.44 0 0 1-.21-.15l-2-2c-.17-.17-.18-.35-.06-.45s.26-.08.42.08l2 2a.46.46 0 0 1 .13.2c.05.16-.06.31-.28.32ZM7.26 7c0 .23-.19.34-.35.26a1.24 1.24 0 0 1-.22-.18L4.88 5.24a1.45 1.45 0 0 1-.17-.18.23.23 0 0 1 0-.32.22.22 0 0 1 .32 0 1 1 0 0 1 .15.14c.62.61 1.23 1.23 1.84 1.85a1.32 1.32 0 0 1 .24.27ZM12.25 4.58v1.08a1.85 1.85 0 0 1 0 .24.21.21 0 0 1-.25.2.39.39 0 0 1-.22-.18V3.43c0-.3.07-.42.24-.43s.26.12.26.42ZM12.25 19.47v1.09a1 1 0 0 1 0 .24.22.22 0 0 1-.25.2c-.08 0-.17-.11-.22-.19a.63.63 0 0 1 0-.24v-2.49a.35.35 0 0 1 .23-.17.36.36 0 0 1 .23.16.65.65 0 0 1 0 .28Z"/>
  <path d="M12 8.36A3.65 3.65 0 1 1 8.36 12 3.61 3.61 0 0 1 12 8.36Z"/>
</svg>