<svg viewBox="0 0 500 500" xmlns="http://www.w3.org/2000/svg"><g stroke="#000" stroke-miterlimit="10" stroke-width=".75"><path d="m306.95 10.75c21.4.78 36.36 10.07 47.38 26.35 1.09 1.61 2.03 3.33 3.26 4.82 5.37 6.49 8.05 14.31 10.81 22.05.22.57.34 1.16.36 1.77.28 8.16 1.09 16.34.66 24.46-.42 7.65-2.17 15.23-3.29 22.81-.59 4.02-.36 8.33-1.76 12.07-2.45 6.56-1.52 13.42-3.06 20.12-1.54 6.71-3.07 13.62-4.56 20.43-1.72 7.89-5.37 15.2-6.09 23.45-.76 8.55-2.84 16.96-4.24 25.49-.5 3.09-.72 6.22-1.01 9.39-.07.8-.16 1.96.28 2.37 4.13 3.81 1.85 8.97 2.55 13.42 1.54 9.62 1.57 19.48 2.45 29.22.89 9.74-1.5 18.9-5.46 27.8-.68 1.54-.08 4.02.63 5.78 1.52 3.76 3.69 7.24 5.25 11 2.21 5.37 4.02 10.81 6.16 16.18 1.01 2.52 2.75 4.79 3.5 7.37 1.27 4.45 1.89 9.1 3.05 13.59 1.9 7.47 5.02 14.76 5.8 22.36 1.44 13.55 2.58 27.5-5.47 40.15-4.83 7.55-5.65 16.35-7.16 24.99-1.7 9.71-.99 19.57-2.86 29.25-2.11 10.84-9.99 15.86-19.22 19.08-3.7 1.09-7.66-.44-9.66-3.74-3.53-5.9-6.47-12.15-9.55-18.33-2.17-4.36-3.89-8.99-6.36-13.17s-6.71-6.43-11.54-7.32c-12.04-2.25-24.3-3.04-36.53-2.36-6.77.38-12.65 3.22-18.11 7.34-3.4 2.52-5.7 6.25-6.43 10.42-1.35 6.05-3.46 11.91-6.26 17.44-2.96 5.81-8.68 8.65-14.98 9.91-2.58.52-5.26.47-7.89.78-3.45.4-5.94-1.34-8.56-3.29-6.26-4.56-8.51-11.13-9.61-18.31-1.34-9.02-2.68-18.04-4.02-27.05-.48-3.23-2.78-4.72-5.92-3.61-7.37 2.59-14.69 5.3-22.01 8.05-4.48 1.64-8.95 2.76-13.66.87-.49-.15-.99-.22-1.5-.21-11.31-.64-17.19-11.68-11.51-21.46 3.41-5.88 6.41-11.99 9.98-17.75 2.68-4.4 1.88-8.73 1.46-13.42-.59-6.63-.23-13.35-.19-20.02 0-1.34.54-2.68.47-3.93-.27-5.66 1.18-11.01 2.58-16.42 1.06-4.02.87-8.57 2.29-12.49 3.95-11.19 10.79-21.13 19.83-28.82 9.07-7.74 19.81-11.74 30.86-15.36 3.2-1.08 5.89-3.33 7.51-6.29.32-.52.46-1.25.91-1.57 5.03-3.65 2.08-8.64 2.21-13.08.07-1.8-.46-3.61-.56-5.37-.58-8.72-1.01-17.44-1.66-26.17-.46-6.2 1.85-11.36 5.49-16.1.61-.63 1.42-1.03 2.29-1.13 1.41-.17 2.86 0 4.28 0 2.75-.11 3.92-1.5 3.43-4.13-1.22-6.71-2.6-13.32-3.65-20.03-.94-6.01-1.34-12.07-2.36-18.1-.42-2.55-1.93-4.91-2.39-7.45-1.45-8.2-2.68-16.41-3.9-24.64-.67-4.6-1.9-9.32-1.42-13.84.64-6.06-.98-11.77-1.19-17.65-.3-8.38 1.84-16.22 4.15-24.15 4.99-17.33 12.36-33.54 23.75-47.41 8.53-10.44 17.44-20.78 30.16-26.83 8.14-3.71 16.79-6.2 25.66-7.38 5.81-1.09 11.66-1.66 16.17-2.2zm-95.52 277.7c-2.08 2.68-3.58 4.39-4.91 6.26-2.01 2.69-3.86 5.49-5.55 8.38-5.27 9.7-10.61 19.39-15.45 29.31-2.06 4.62-3.67 9.43-4.82 14.35-1.37 4.36-2.25 8.86-2.6 13.42-.2 5.82.66 11.68 1.07 17.52.89 11.77 2.79 23.44 5.67 34.88 1.72 6.95 4.02 13.75 5.51 20.73 1.05 5.3 1.74 10.66 2.08 16.04.63 7.73 1.34 15.39 3.94 22.81 1.81 5.1 4.71 9.07 9.77 11.09 6.98 2.79 19.56-2.21 22.5-9.2 2.22-4.92 3.85-10.09 4.86-15.39.88-6.13 4.36-11.57 9.55-14.94 9.1-6.25 19.2-7.87 29.97-6.33 1.9.37 3.84.52 5.78.44 8.05-.82 15.64 1.07 23.29 2.82 5.23 1.19 10.03 3.94 12.52 8.59 3.78 7.06 6.6 14.64 9.69 22.05 1.66 4.02 3.69 7.73 7.3 10.34 1.96 1.41 4.02 2.01 6.21.5 3.58-2.48 7.18-4.95 10.73-7.47.62-.37 1.1-.95 1.34-1.64.84-4.07 1.46-8.18 1.84-12.32.38-6.36 0-12.77.44-19.14.34-4.27 1-8.5 1.97-12.66 1.26-5.77 2.05-11.83 4.52-17.06 2.07-4.37 4.39-8.25 5.25-13.31 1.23-7.27 1.77-14.46.35-21.56-2.19-10.88-4.71-21.71-7.78-32.37-3.6-12.39-8.3-24.44-14.05-35.99-.7-1.34-1.34-2.8-2.08-4.39-.72.68-1.21 1.06-1.61 1.5-3.45 3.89-6.86 7.82-10.33 11.7-6.13 6.84-14.45 10.44-22.08 15.12-6.18 3.78-13.08 4.19-19.87 5.3-1.32.18-2.66.1-3.96-.21-8.41-1.82-16.81-3.76-25.22-5.61-13.21-2.91-23.56-10.91-33.7-19.18-1.19-1.24-2.1-2.72-2.68-4.33-3.1-6.35-6.02-12.72-9.46-20.07v.03zm128.69-63.05c.19-2.04.2-3.25.43-4.43 2.68-14.48 4.21-29.15 8.4-43.37 2.11-7.34 3.84-14.78 5.16-22.3 2.33-12.68 5.65-25.17 7.2-38.01 1.07-8.76 2.43-17.44 3.58-26.24.12-1.43.1-2.86-.07-4.28-.3-4.67-.64-9.39-.95-13.99.06-1.73-.04-3.46-.32-5.16-1.46-5.51-2.12-11.24-6.39-15.82-3.43-3.69-5.97-8.2-9.04-12.23-4.11-5.37-10.38-5.19-16.1-5.46-4.17-.21-8.45.86-12.64 1.6-7.92 1.41-16.02 2.24-23.61 4.66-14.5 4.57-27.92 11.42-38.57 22.74-11.24 12.18-20.14 26.32-26.27 41.72-3.53 8.59-5.49 17.84-7.83 26.83-3.45 13.25-3.37 26.83-3.01 40.41.08 2.84.55 5.67.82 8.51.67 7.19 1.23 14.39 2.04 21.57.75 6.77 1.77 13.52 2.68 20.28.48 3.7 1.58 7.11 4.71 9.65.48-.31.87-.63 1.34-.86 8.12-4.02 16.02-8.52 24.43-11.78 6.41-2.3 13.06-3.85 19.83-4.6 5.27-.71 10.73-.19 16.1 0 3.64.13 7.24.79 10.88 1.01 9.55.58 19.17.48 27.88 5.53 3.01 1.55 6.12 2.92 9.31 4.08v-.04zm-106.65 44.27-.58.09c.62 3.77.58 7.81 1.99 11.24 2.58 6.1 5.6 12.01 9.02 17.68 1.43 2.34 3.43 4.28 5.82 5.63 6.29 3.56 12.77 6.81 19.32 9.86 2.65 1.29 5.53 2.05 8.48 2.23 8.24.27 16.26.6 24.46-2.68 8.44-3.36 16.35-7.91 23.49-13.52 7.96-6.26 11.98-14.38 14.18-23.64 1.18-4.44 1.43-9.07.71-13.6-.94-4.67-3.73-8.97-5.82-13.42-.4-.7-1.03-1.24-1.78-1.52-3.3-1.34-6.6-2.68-10.01-3.77-11.5-3.51-23.34-2.5-35.12-2.75-8.28-.19-15.98 2.03-23.48 4.48-8.56 2.8-16.55 7.28-24.82 10.96-4.52 2.01-6.83 5.16-5.88 10.29.08.81.09 1.62.03 2.43zm-37.83 30.86-.54-.74c-6.47.82-12.49 2.76-17.51 7.3-1.81 1.65-3.61 3.31-5.54 4.82-6.63 5.02-12.08 11.43-15.95 18.78-1.88 3.59-3.34 7.38-4.35 11.31-.87 3.47-.19 7.38-1.26 10.73-2.94 9.23-2.11 18.78-3.02 28.17-.27 2.84.71 5.81 1.05 8.73.31 2.68 1.34 5.7.6 8.05-2.24 5.9-4.8 11.67-7.67 17.28-1.85 3.85-4.49 7.37-6 11.32-1.78 4.71-.8 9.97 3.37 11.79 3.91 1.96 8.29 2.8 12.65 2.43 4.23-.52 7.65-2.48 11.4-3.93 6.71-2.68 13.51-4.86 20.67-7.38-.85-3.35-1.95-7.24-2.83-11.2-1.64-7.34-3.46-14.66-4.63-22.1-1.21-7.71-1.62-15.56-2.54-23.33-1.27-10.93-.76-21.64 3.5-31.94.94-2.25 1.72-4.59 2.68-6.81 4.53-9.9 9.11-19.78 13.72-29.63.66-1.26 1.46-2.4 2.17-3.6v-.05zm15.72-56.65v3.84c-.6 10.4 1.34 20.49 3.66 30.53 3.33 14.65 9.26 27.78 21.87 36.95.08 0 .15.13.23.2 6.12 5.1 12.72 9.2 20.78 10.42 2.92.44 5.86.86 8.73 1.52 8.68 2.01 17.23 4.9 26.36 3.57 2.29-.34 4.83-.2 6.86-1.15 6.52-3.03 12.87-6.45 19.25-9.77.98-.54 1.91-1.19 2.75-1.93 9.81-8.25 18.03-17.67 22.48-29.98 1.98-5.08 2.24-10.66.74-15.9-.48 1.72-.38 3.58-.94 5.21-4.57 13.19-10.36 25.11-23.81 32.2-5.37 2.8-10.73 5.7-16 8.6-5.1 2.75-10.33 3.07-15.88 3.43-10.3.67-19.59-1.74-28.86-6.12-10.21-4.82-19.1-10.46-24.01-21.22-3.41-7.46-6.8-14.76-7.08-23.2-.28-8.61 1.1-17.33-1.57-25.82-1.25-3.96-1.89-8.13-3.47-11.94-.99-1.82-2.66-3.17-4.64-3.77-5.07-1.52-7.59 4.72-6.04 9.83 1.44-.89 2.68-1.78 4.15-2.54 2.19-1.31 5.04-.6 6.35 1.6.32.54.53 1.14.61 1.76.25 3.15.25 6.32 0 9.47-.34 4.32-2.68 5.29-6.36 2.83-.62-.34-1.18-.8-1.64-1.34-1.34-2.05-2.64-4.23-4.51-7.22v-.05zm87.89-226.73c.7 1.22 1.46 2.41 2.07 3.69 1.73 3.61 1.34 5.37-2.21 7.28-3.59 1.91-7.32 3.53-11.16 4.86-5.02 1.66-8.05.38-11.01-4.02-2.55-3.73-1.42-6.32 3.01-7.16 1.74-.32 3.42-.95 5.12-1.44-8.05-.94-27.3 8.45-28.36 13.2.55-.24 1.01-.38 1.34-.6 3.23-1.76 4.55-1.45 6.61 1.54 1.74 2.51 1.86 7.79-.43 9.97-4.15 3.93-8.71 7.43-13.19 11.2-2.07-2.37-3.54-4.19-5.16-5.86-1.09-.87-1.26-2.46-.39-3.55.06-.07.12-.14.19-.21.86-1.17 1.53-2.46 2.29-3.69l-.97-.52c-17.99 16.85-26.39 38.9-32.49 62.03-3.09 11.74-2.46 42.24.55 45.87.21-.34.36-.7.47-1.09.64-5.15 1.18-10.32 1.89-15.45 2.21-15.75 6.71-30.73 14.76-44.54 5.26-8.96 10.3-18 17.27-25.89 5.37-6.08 10.61-12.33 17.94-15.91 6.52-3.19 12.37-7.96 19.84-9.12.48-.08.91-.48 1.34-.62 6.52-1.88 13-3.89 19.59-5.51 3.87-.83 7.78-1.43 11.71-1.8 3.21-.4 6.45-.64 9.7-.82 1.85-.09 3.74.11 5.61.07 1.11-.09 2.21-.24 3.3-.47-9.36-12.25-29.46-16.46-39.21-11.36v-.07zm39 226.21c.66-3.68 1.34-6.6 1.66-9.57.12-.91-.17-2.51-.75-2.78-7-3.21-13.27-8.33-21.22-9.1-11.34-1.1-22.71-1.84-34.07-2.68-1.12 0-2.24.17-3.31.48-2.68.56-5.37 1.44-8.05 1.74-13.83 1.52-25.66 8.2-37.56 14.62-2 1.07-4.87 2.36-2.9 5.81.2.34-.51 1.11-.51 1.68.07 3.53-.58 7.19 1.41 10.42 4.02-1.72 7.93-3.22 11.68-4.96 20.23-9.39 41.2-14.76 63.71-11.75 7.31.95 14.9.32 21.72 4.02 1.25.66 2.58 1.15 3.96 1.44 1.4.31 2.81.54 4.24.68v-.07zm5.3 1.11c-4.99 4.56-2.33 9.04 1.01 13.42-.35-4.48-.68-9.1-1.01-13.35z" fill="#2d2c28"/><path d="m230.74 81.93c2.41.3 3.7-1.22 4.79-3.27 1.34-2.68 2.8-5.19 4.41-7.66 2.07-3.21 1.89-6.45-.66-8.05-2.33-1.48-7.3.3-8.57 3.09-1.34 3.03-2.8 6.08-4.09 9.16-1.44 3.38.56 6.71 4.12 6.73z" fill="#c48792"/><path d="m343.55 244.54c.32 4.25.66 8.87 1.01 13.42-3.34-4.37-6-8.85-1.01-13.42z"/><path d="m329.87 59.67c0 4.21-.66 5.03-4.64 6.21-2.48.74-3.88-.72-5.08-2.39-1.61-2.38-1.25-5.57.85-7.54 1.01-1.23 2.34-2.16 3.85-2.68 3.45-.66 5.03 1.52 5.03 6.4zm-47.54 9.51c-.38-2.27 0-4.83 2.83-5.59 2.01-.54 4.68-.99 6.02 1.44.85 1.33 1.16 2.94.85 4.49-.91 2.53-2.37 4.82-4.28 6.71-1.76 1.58-5.04-.93-5.37-3.89-.08-1.05-.09-2.1-.05-3.15z" fill="#2b2a27"/><path d="m245.24 165.49c-3.22 0-5.02-1.77-5.04-5.04-.25-2.6 1.64-4.91 4.24-5.16.29-.03.57-.03.86 0 2.68 0 5.74 2.41 5.74 4.47-.05 3.17-2.62 5.72-5.8 5.74z" fill="#2e2d28"/><path d="m266.69 96.66c0 3.18-1.66 5.47-4.02 5.55-3.15-.2-5.66-2.69-5.89-5.84 0-2.11 3.81-5.92 5.89-5.92 2.45 0 4.02 2.41 4.02 6.2zm44.61-6.67c-.08-2.98 1.5-5.06 3.93-5.18s5.84 3.29 5.92 5.9c.08 3.1-2.2 5.37-5.62 5.45-2.7.12-4.11-1.95-4.23-6.17z" fill="#2c2b28"/><path d="m308.01 171.01c-2.68.15-3.22-1.5-3.25-3.51 0-3.03 3.1-6.71 5.63-6.63s5.03 3.14 5.06 6c.03 2.58-2.95 4.2-7.45 4.15z" fill="#2e2d28"/><path d="m250.43 124.63c2.55 0 5.18 3.57 5.08 6.87 0 1.53-3.62 4.31-5.37 4.21-1.57-.09-3.85-3.8-3.85-6.25-.17-2.47 1.67-4.62 4.13-4.83z" fill="#2c2b28"/><path d="m349.4 89.48c0 2.29-2.5 5.67-4.12 5.59-2.56-.13-5.77-4.21-5.37-7.47.36-2.52 2.84-2.68 4.94-2.78 3.21-.11 4.55 1.34 4.55 4.66z" fill="#2d2c28"/><path d="m288.09 110.38c-.17-2.56 1.77-4.77 4.33-4.93h.07c1.9 0 4.17 3.06 4.28 5.67.09 2.27-3.14 5.37-5.37 5.37-1.66-.15-3.33-3.23-3.31-6.1zm27.77 17.83c2.5.72 3.07 3.09 3.54 5.47s-.93 3.85-2.9 4.75c-.42.19-1.34-.32-1.82-.72-1.14-.85-2.17-1.83-3.09-2.92-.87-.95-1.43-2.14-1.6-3.42 0-1.88 1.48-2.68 3.37-2.68.84-.09 1.68-.25 2.5-.47zm19.59-18.78c2.58.56 4.48 2.68 4.02 5.19-.31 2.09-1.25 4.04-2.68 5.59-2.16 2.07-3.56-.52-4.87-1.82-1.93-1.92-.79-4.12.17-5.93.74-1.27 2.23-2.07 3.35-3.03z" fill="#2e2c28"/><path d="m336.76 148.54c-2.44-.22-4.39-2.11-4.68-4.53-.1-2.35 1.68-4.37 4.02-4.56 3.84-.08 5.73 1.82 5.71 5.74-.05 1.81-2.43 3.35-5.06 3.35z" fill="#2f2d29"/><path d="m286.94 143.87c.27 2.13 0 4.13-3.34 4.02-2.59-.11-5.29-1.9-5.23-3.62.07-2.17 2.68-5.8 4.28-5.81 2.36-.05 4.29 2.27 4.29 5.41z" fill="#2e2c28"/><path d="m298.66 302.13-7.15-5.49c-4.11 2.36-6.53 9.14-13.52 4.6 2.25-1.76 4.12-3.45 6.21-4.79s2.08-2.78.85-4.53c-.96-1.04-1.81-2.18-2.55-3.39-.52-1.27-.68-2.66-.48-4.02 0-.39 1.93-.6 2.99-.7 2.9-.24 5.81-.4 8.72-.55h3.53c.17 1.62.1 3.26-.21 4.86-.52 1.48-3.29 2.15-1.54 4.47.88 1.43 1.93 2.76 3.13 3.94 2.83 2.27 2.95 2.59.04 5.61z" fill="#2d2b28"/><path d="m321.68 260.56c2.36 0 4.92-.51 5.15 3.11.13 2.11-.51 3.37-2.68 3.68-4.77.76-9.18 3-12.6 6.41-2.16 2.3-5.78 2.41-8.08.25-.13-.12-.25-.24-.36-.37-1.34-1.44-.85-4.6.94-6.91 2.58-3.31 6.43-4.17 10.07-5.26 2.49-.53 5.01-.83 7.55-.91z" fill="#2b2a27"/><path d="m272.19 273.52c-2.4-.76-4.24-1.22-6-1.92-3.3-1.34-6.57-2.68-9.79-4.25-1.2-.48-2.26-1.27-3.06-2.29-2.09-3.34-1.03-5.27 2.86-5.02 2.98.17 5.92.97 8.87 1.44 1.2.22 2.41.33 3.62.35 4.64 0 8.85 4.82 7.47 9.23-.35 1.14-2.64 1.69-3.97 2.47z" fill="#2b2927"/><path d="m230.74 81.93c-3.56 0-5.55-3.34-4.12-6.71 1.34-3.09 2.68-6.13 4.09-9.16 1.27-2.79 6.24-4.56 8.57-3.09 2.55 1.61 2.68 4.86.66 8.05-1.61 2.47-3.05 5.04-4.41 7.66-1.09 2.03-2.37 3.54-4.79 3.25z" fill="#2c2a27"/></g></svg>