<svg xmlns="http://www.w3.org/2000/svg" viewBox="0 0 500 500">
  <path fill="#2d2c28" stroke="#000" d="M307 10.8c21.3.7 36.3 10 47.3 26.3 1.1 1.6 2 3.3 3.3 4.8 5.4 6.5 8 14.3 10.8 22l.4 1.8c.2 8.2 1 16.4.6 24.5-.4 7.6-2.1 15.2-3.3 22.8-.6 4-.3 8.3-1.7 12-2.5 6.6-1.5 13.5-3 20.2-1.6 6.7-3.2 13.6-4.6 20.4-1.8 8-5.4 15.2-6.1 23.5-.8 8.5-2.9 17-4.3 25.5-.5 3-.7 6.2-1 9.4 0 .8-.1 2 .3 2.3 4.1 3.8 1.8 9 2.5 13.4 1.6 9.7 1.6 19.5 2.5 29.3.9 9.7-1.5 18.9-5.5 27.8-.6 1.5 0 4 .7 5.7 1.5 3.8 3.7 7.3 5.2 11 2.2 5.4 4 10.9 6.2 16.2 1 2.5 2.7 4.8 3.5 7.4 1.2 4.4 1.9 9.1 3 13.6 2 7.5 5 14.7 5.8 22.3 1.5 13.6 2.6 27.5-5.4 40.2-4.9 7.5-5.7 16.3-7.2 25-1.7 9.7-1 19.6-2.9 29.2-2 10.9-10 15.9-19.2 19.1a8.5 8.5 0 0 1-9.7-3.7c-3.5-6-6.4-12.2-9.5-18.4-2.2-4.3-3.9-9-6.4-13.1s-6.7-6.5-11.5-7.3a154 154 0 0 0-36.5-2.4c-6.8.4-12.7 3.2-18.1 7.3a16.5 16.5 0 0 0-6.5 10.5 74.6 74.6 0 0 1-6.2 17.4c-3 5.8-8.7 8.6-15 10-2.6.4-5.3.4-7.9.7-3.5.4-6-1.4-8.6-3.3-6.2-4.6-8.5-11.1-9.6-18.3l-4-27c-.5-3.3-2.8-4.8-6-3.7l-22 8c-4.4 1.7-8.9 2.8-13.6 1l-1.5-.3c-11.3-.6-17.2-11.6-11.5-21.4 3.4-5.9 6.4-12 10-17.8 2.7-4.4 1.9-8.7 1.4-13.4-.5-6.6-.2-13.3-.1-20 0-1.4.5-2.7.4-4-.2-5.6 1.2-11 2.6-16.4 1-4 .9-8.5 2.3-12.5a67.2 67.2 0 0 1 19.8-28.8 87.7 87.7 0 0 1 30.9-15.3c3.2-1.1 5.9-3.4 7.5-6.3.3-.5.5-1.3 1-1.6 5-3.6 2-8.6 2.1-13 0-1.9-.4-3.7-.5-5.4-.6-8.8-1-17.5-1.7-26.2a23 23 0 0 1 5.5-16.1c.6-.6 1.4-1 2.3-1.1 1.4-.2 2.8 0 4.3 0 2.7-.2 3.9-1.5 3.4-4.2-1.2-6.7-2.6-13.3-3.7-20-.9-6-1.3-12-2.3-18.1-.4-2.6-2-5-2.4-7.5-1.5-8.2-2.7-16.4-4-24.6-.6-4.6-1.8-9.3-1.3-13.8.6-6-1-11.8-1.2-17.7a76 76 0 0 1 4.1-24.1c5-17.4 12.4-33.6 23.8-47.4a90.7 90.7 0 0 1 30-26.9 90.7 90.7 0 0 1 25.7-7.4c5.8-1 11.7-1.6 16.2-2.2zm-95.6 277.6-4.9 6.3a89.3 89.3 0 0 0-5.5 8.4c-5.3 9.7-10.6 19.4-15.5 29.3a79.9 79.9 0 0 0-4.8 14.3 60.1 60.1 0 0 0-2.6 13.5c-.2 5.8.7 11.7 1 17.5 1 11.8 2.9 23.4 5.7 34.9 1.8 7 4 13.7 5.5 20.7a122.2 122.2 0 0 1 2.1 16 90 90 0 0 0 4 22.9c1.8 5 4.7 9 9.7 11 7 2.8 19.6-2.2 22.5-9.2a68.7 68.7 0 0 0 4.9-15.3c.9-6.2 4.4-11.6 9.6-15a40.8 40.8 0 0 1 30-6.3c1.8.4 3.8.5 5.7.4 8-.8 15.6 1 23.3 2.8 5.2 1.2 10 4 12.5 8.6 3.8 7 6.6 14.7 9.7 22 1.7 4.1 3.7 7.8 7.3 10.4 2 1.4 4 2 6.2.5l10.7-7.5c.7-.3 1.1-.9 1.4-1.6.8-4 1.4-8.2 1.8-12.3.4-6.4 0-12.8.5-19.1.3-4.3 1-8.6 2-12.7 1.2-5.8 2-11.8 4.5-17 2-4.4 4.3-8.3 5.2-13.4a59 59 0 0 0 .3-21.5 407.5 407.5 0 0 0-7.7-32.4 216 216 0 0 0-14-36c-.8-1.3-1.4-2.8-2.2-4.4l-1.6 1.5-10.3 11.7c-6.1 6.8-14.4 10.4-22 15.1-6.3 3.8-13.2 4.2-20 5.3-1.3.2-2.6.1-4-.2l-25.1-5.6c-13.2-2.9-23.6-10.9-33.7-19.2a12.3 12.3 0 0 1-2.7-4.3l-9.5-20zm128.7-63 .4-4.4c2.7-14.5 4.3-29.2 8.5-43.4a215.7 215.7 0 0 0 5.1-22.3c2.3-12.7 5.7-25.2 7.2-38 1-8.8 2.4-17.5 3.6-26.3v-4.2l-1-14c0-1.8 0-3.5-.3-5.2-1.5-5.5-2.2-11.2-6.4-15.8-3.5-3.7-6-8.2-9-12.2-4.2-5.4-10.5-5.2-16.2-5.5-4.2-.2-8.4.9-12.6 1.6-8 1.4-16 2.2-23.6 4.7A87.5 87.5 0 0 0 257.2 63a135.3 135.3 0 0 0-26.3 41.7c-3.5 8.6-5.5 17.9-7.8 26.9a143.9 143.9 0 0 0-3 40.4c0 2.8.5 5.6.8 8.5.7 7.2 1.2 14.4 2 21.5.8 6.8 1.8 13.6 2.7 20.3.5 3.7 1.6 7.1 4.7 9.7l1.4-.9c8.1-4 16-8.5 24.4-11.8a89 89 0 0 1 19.8-4.6c5.3-.7 10.8-.2 16.1 0 3.7.2 7.3.8 11 1 9.5.6 19 .5 27.8 5.6 3 1.5 6.1 2.9 9.3 4zm-106.6 44.3h-.6c.6 3.8.6 7.9 2 11.3 2.6 6.1 5.6 12 9 17.7 1.4 2.3 3.4 4.3 5.8 5.6a274 274 0 0 0 19.3 9.9c2.7 1.3 5.6 2 8.5 2.2 8.3.3 16.3.6 24.5-2.7a94.7 94.7 0 0 0 23.5-13.5c8-6.3 12-14.4 14.2-23.6 1.1-4.5 1.4-9.1.7-13.6-1-4.7-3.8-9-5.9-13.5-.4-.7-1-1.2-1.7-1.5-3.3-1.3-6.6-2.7-10-3.8-11.5-3.5-23.4-2.5-35.2-2.7a70 70 0 0 0-23.4 4.5c-8.6 2.8-16.6 7.3-24.9 11-4.5 2-6.8 5.1-5.8 10.2v2.5zm-37.9 30.8-.5-.7c-6.5.8-12.5 2.7-17.5 7.3-1.8 1.6-3.6 3.3-5.5 4.8a56.7 56.7 0 0 0-16 18.8 52.6 52.6 0 0 0-4.3 11.3c-1 3.5-.2 7.4-1.3 10.7-3 9.3-2.1 18.8-3 28.2-.3 2.8.7 5.8 1 8.7.3 2.7 1.4 5.7.6 8a172 172 0 0 1-7.6 17.4c-1.9 3.8-4.5 7.3-6 11.3-1.8 4.7-.8 10 3.3 11.8 4 2 8.3 2.8 12.7 2.4 4.2-.5 7.6-2.5 11.4-4 6.7-2.6 13.5-4.8 20.6-7.3-.8-3.4-2-7.2-2.8-11.2-1.6-7.3-3.4-14.7-4.6-22.1-1.2-7.7-1.6-15.6-2.6-23.3-1.2-11-.7-21.7 3.5-32 1-2.2 1.8-4.6 2.7-6.8l13.7-29.6 2.2-3.6zm15.8-56.6v3.8a108 108 0 0 0 3.6 30.5 59 59 0 0 0 21.9 37l.2.2a42.3 42.3 0 0 0 20.8 10.4c3 .5 5.9.9 8.7 1.5 8.7 2 17.3 5 26.4 3.6 2.3-.3 4.8-.2 6.9-1.1 6.5-3 12.8-6.5 19.2-9.8a70.9 70.9 0 0 0 25.2-32c2-5 2.3-10.6.8-15.8-.5 1.7-.4 3.6-1 5.2-4.5 13.2-10.3 25.1-23.8 32.2l-16 8.6c-5 2.7-10.3 3-15.9 3.4a57.3 57.3 0 0 1-28.8-6.1c-10.2-4.8-19.1-10.5-24-21.2-3.4-7.5-6.8-14.8-7.1-23.2-.3-8.6 1-17.4-1.6-25.8-1.2-4-1.9-8.2-3.4-12a7.9 7.9 0 0 0-4.7-3.8c-5-1.5-7.6 4.8-6 9.9l4.1-2.6a4.6 4.6 0 0 1 7 3.4c.2 3.2.2 6.3 0 9.5-.4 4.3-2.7 5.3-6.4 2.8a5 5 0 0 1-1.6-1.3c-1.4-2-2.7-4.3-4.5-7.3zM299.2 17l2.1 3.7c1.7 3.6 1.4 5.4-2.2 7.3a78.3 78.3 0 0 1-11.1 5c-5 1.6-8 .4-11-4-2.5-3.8-1.4-6.4 3-7.2 1.8-.3 3.5-1 5.2-1.4-8-1-27.3 8.4-28.4 13.2l1.3-.6c3.3-1.8 4.6-1.5 6.7 1.5 1.7 2.5 1.8 7.8-.5 10-4.1 3.9-8.7 7.4-13.2 11.2l-5.1-5.9a2.5 2.5 0 0 1-.2-3.8l2.3-3.6-1-.6c-18 16.9-26.4 39-32.5 62-3 11.8-2.5 42.3.6 46l.4-1.2c.7-5.1 1.2-10.3 2-15.4a117 117 0 0 1 14.7-44.5c5.2-9 10.3-18 17.2-26 5.4-6 10.7-12.3 18-15.8 6.5-3.2 12.4-8 19.8-9.2.5 0 1-.4 1.4-.6 6.5-1.9 13-3.9 19.6-5.5a142 142 0 0 1 21.4-2.6h5.6c1 0 2.2-.2 3.3-.4C329 16.3 309 12 299.3 17.2zm39 226.3c.7-3.7 1.4-6.6 1.7-9.6.1-1-.2-2.5-.7-2.8-7-3.2-13.3-8.3-21.3-9-11.3-1.2-22.7-2-34-2.8a12 12 0 0 0-3.3.5c-2.7.6-5.4 1.4-8 1.7-14 1.6-25.7 8.2-37.6 14.7-2 1-5 2.3-3 5.8.3.3-.5 1-.5 1.7.1 3.5-.5 7.2 1.5 10.4 4-1.7 7.9-3.2 11.6-5a113.3 113.3 0 0 1 63.7-11.7c7.4 1 15 .3 21.8 4a26.3 26.3 0 0 0 8.2 2.1zm5.4 1c-5 4.6-2.4 9.1 1 13.5l-1-13.4z"/>
  <path fill="#c48792" stroke="#000" d="M230.7 82c2.5.2 3.7-1.3 4.8-3.3A77 77 0 0 1 240 71c2.1-3.2 2-6.4-.6-8-2.4-1.5-7.3.3-8.6 3-1.3 3-2.8 6.1-4 9.2-1.5 3.4.5 6.7 4 6.7z"/>
  <path stroke="#000" d="m343.6 244.5 1 13.5c-3.4-4.4-6-8.9-1-13.5z"/>
  <path fill="#2b2a27" stroke="#000" d="M329.9 59.7c0 4.2-.7 5-4.7 6.2-2.4.7-3.8-.7-5-2.4a5.8 5.8 0 0 1 .8-7.6 8.6 8.6 0 0 1 3.9-2.6c3.4-.7 5 1.5 5 6.4zm-47.6 9.5c-.4-2.3 0-4.8 2.9-5.6 2-.5 4.6-1 6 1.4.8 1.4 1.1 3 .8 4.5a18 18 0 0 1-4.3 6.7c-1.7 1.6-5-.9-5.3-3.9v-3.1z"/>
  <path fill="#2e2d28" stroke="#000" d="M245.2 165.5c-3.2 0-5-1.8-5-5a4.7 4.7 0 0 1 4.2-5.2h.9c2.7 0 5.7 2.4 5.7 4.5a5.8 5.8 0 0 1-5.8 5.7z"/>
  <path fill="#2c2b28" stroke="#000" d="M266.7 96.7c0 3.1-1.7 5.4-4 5.5a6.3 6.3 0 0 1-6-5.8c0-2.1 3.9-6 6-6 2.4 0 4 2.5 4 6.2zm44.6-6.7c0-3 1.5-5 4-5.2s5.8 3.3 5.9 6c0 3-2.2 5.3-5.7 5.4-2.7 0-4-2-4.2-6.2z"/>
  <path fill="#2e2d28" stroke="#000" d="M308 171c-2.7.2-3.2-1.5-3.2-3.5 0-3 3-6.7 5.6-6.6s5 3.1 5 6c0 2.5-2.9 4.2-7.4 4.1z"/>
  <path fill="#2c2b28" stroke="#000" d="M250.4 124.6c2.6 0 5.2 3.6 5.1 6.9 0 1.5-3.6 4.3-5.4 4.2-1.5 0-3.8-3.8-3.8-6.2a4.5 4.5 0 0 1 4.1-4.9z"/>
  <path fill="#2d2c28" stroke="#000" d="M349.4 89.5c0 2.3-2.5 5.7-4.1 5.6-2.6-.2-5.8-4.2-5.4-7.5.4-2.5 2.8-2.7 5-2.8 3.2 0 4.5 1.4 4.5 4.7z"/>
  <path fill="#2e2c28" stroke="#000" d="M288 110.4a4.6 4.6 0 0 1 4.4-5c2 0 4.3 3.1 4.4 5.7 0 2.3-3.2 5.4-5.4 5.4-1.7-.2-3.3-3.2-3.3-6.1zm27.9 17.8c2.5.7 3 3.1 3.5 5.5s-1 3.8-2.9 4.7c-.4.2-1.3-.3-1.8-.7-1.2-.8-2.2-1.8-3.1-3a6.3 6.3 0 0 1-1.6-3.3c0-2 1.5-2.7 3.4-2.7l2.5-.5zm19.5-18.8c2.6.6 4.5 2.7 4 5.2a10 10 0 0 1-2.6 5.6c-2.2 2-3.6-.5-4.9-1.8-2-2-.8-4.1.2-6 .7-1.2 2.2-2 3.3-3z"/>
  <path fill="#2f2d29" stroke="#000" d="M336.8 148.5a5.2 5.2 0 0 1-4.7-4.5 4.4 4.4 0 0 1 4-4.6c3.8 0 5.7 1.9 5.7 5.8 0 1.8-2.4 3.3-5 3.3z"/>
  <path fill="#2e2c28" stroke="#000" d="M287 143.9c.2 2.1 0 4.1-3.4 4-2.6-.1-5.3-2-5.2-3.6 0-2.2 2.7-5.8 4.3-5.8 2.3 0 4.2 2.2 4.2 5.4z"/>
  <path fill="#2d2b28" stroke="#000" d="m298.7 302.1-7.2-5.5c-4.1 2.4-6.5 9.2-13.5 4.6 2.2-1.7 4.1-3.4 6.2-4.7s2-2.8.9-4.6a17 17 0 0 1-2.6-3.4 7.7 7.7 0 0 1-.5-4c0-.4 2-.6 3-.7l8.7-.5h3.6c.1 1.6 0 3.2-.2 4.8-.6 1.5-3.3 2.2-1.6 4.5.9 1.4 2 2.8 3.1 4 2.9 2.2 3 2.5 0 5.5z"/>
  <path fill="#2b2a27" stroke="#000" d="M321.7 260.6c2.3 0 4.9-.6 5.1 3 .2 2.2-.5 3.4-2.7 3.7a23 23 0 0 0-12.6 6.5 5.7 5.7 0 0 1-8.4-.2c-1.3-1.4-.8-4.6 1-6.9 2.5-3.3 6.4-4.1 10-5.2 2.5-.6 5-.9 7.6-1z"/>
  <path fill="#2b2927" stroke="#000" d="M272.2 273.5c-2.4-.7-4.2-1.2-6-1.9-3.3-1.3-6.6-2.7-9.8-4.3a7.4 7.4 0 0 1-3-2.2c-2.2-3.4-1-5.3 2.8-5 3 .1 6 1 8.9 1.4l3.6.3c4.6 0 8.8 4.8 7.5 9.3-.4 1.1-2.7 1.6-4 2.4z"/>
  <path fill="#2c2a27" stroke="#000" d="M230.7 82c-3.5 0-5.5-3.4-4-6.8l4-9.1c1.3-2.8 6.3-4.6 8.6-3.1 2.5 1.6 2.7 4.8.6 8-1.6 2.5-3 5-4.4 7.7-1 2-2.3 3.5-4.8 3.2z"/>
</svg>